<svg width="25" height="25" viewBox="0 0 25 25" fill="none" xmlns="http://www.w3.org/2000/svg">
<path d="M12.3599 0.721741C10.0479 0.721741 7.78772 1.42858 5.86531 2.75287C3.9429 4.07717 2.44456 5.95944 1.55978 8.16165C0.674987 10.3639 0.443486 12.7871 0.894547 15.125C1.34561 17.4629 2.45897 19.6103 4.09385 21.2958C5.72872 22.9813 7.81169 24.1292 10.0793 24.5942C12.347 25.0592 14.6974 24.8206 16.8335 23.9084C18.9696 22.9962 20.7953 21.4515 22.0798 19.4695C23.3643 17.4876 24.0499 15.1574 24.0499 12.7738C24.0464 9.57847 22.8137 6.51509 20.6222 4.25567C18.4306 1.99626 15.4592 0.725341 12.3599 0.721741ZM7.34993 21.7065V20.5215C7.35066 19.8368 7.61481 19.1803 8.08443 18.6962C8.55405 18.212 9.19079 17.9397 9.85493 17.9389H14.8649C15.5291 17.9397 16.1658 18.212 16.6354 18.6962C17.105 19.1803 17.3692 19.8368 17.3699 20.5215V21.7065C15.8495 22.6217 14.1205 23.1041 12.3599 23.1041C10.5993 23.1041 8.87032 22.6217 7.34993 21.7065ZM19.0337 20.4576C19.0171 19.3284 18.5708 18.2511 17.791 17.4579C17.0112 16.6647 15.9604 16.2191 14.8649 16.2172H9.85493C8.75949 16.2191 7.70864 16.6647 6.92886 17.4579C6.14907 18.2511 5.70279 19.3284 5.68619 20.4576C4.17197 19.0637 3.10414 17.2284 2.62411 15.1949C2.14407 13.1614 2.27446 11.0255 2.99802 9.07006C3.72158 7.11463 5.00418 5.4319 6.67598 4.24469C8.34777 3.05748 10.3299 2.42179 12.3599 2.42179C14.3899 2.42179 16.3721 3.05748 18.0439 4.24469C19.7157 5.4319 20.9983 7.11463 21.7218 9.07006C22.4454 11.0255 22.5758 13.1614 22.0958 15.1949C21.6157 17.2284 20.5479 19.0637 19.0337 20.4576Z" fill="#21201D"/>
</svg>
