<svg width="25" height="25" viewBox="0 0 25 25" fill="none" xmlns="http://www.w3.org/2000/svg">
<path d="M12.3601 5.88684C11.5343 5.88684 10.7271 6.13928 10.0406 6.61225C9.35398 7.08521 8.81886 7.75745 8.50286 8.54395C8.18687 9.33046 8.10419 10.1959 8.26528 11.0309C8.42638 11.8658 8.82401 12.6328 9.40789 13.2347C9.99177 13.8367 10.7357 14.2466 11.5456 14.4127C12.3554 14.5788 13.1949 14.4936 13.9578 14.1678C14.7206 13.842 15.3727 13.2903 15.8314 12.5825C16.2902 11.8746 16.5351 11.0424 16.5351 10.1911C16.5351 9.04957 16.0952 7.95475 15.3122 7.14754C14.5293 6.34033 13.4673 5.88684 12.3601 5.88684ZM12.3601 12.7737C11.8646 12.7737 11.3803 12.6222 10.9684 12.3385C10.5564 12.0547 10.2353 11.6513 10.0457 11.1794C9.85614 10.7075 9.80654 10.1883 9.90319 9.6873C9.99985 9.18633 10.2384 8.72616 10.5888 8.36498C10.9391 8.0038 11.3854 7.75783 11.8714 7.65818C12.3573 7.55853 12.861 7.60968 13.3187 7.80515C13.7764 8.00061 14.1676 8.33163 14.4429 8.75633C14.7181 9.18103 14.8651 9.68035 14.8651 10.1911C14.8643 10.8758 14.6001 11.5323 14.1305 12.0164C13.6609 12.5006 13.0242 12.7729 12.3601 12.7737Z" fill="#21201D"/>
<path d="M12.3599 0.721741C10.0479 0.721741 7.78772 1.42858 5.86531 2.75287C3.9429 4.07717 2.44456 5.95944 1.55978 8.16165C0.674987 10.3639 0.443486 12.7871 0.894547 15.125C1.34561 17.4629 2.45897 19.6103 4.09385 21.2958C5.72872 22.9813 7.81169 24.1292 10.0793 24.5942C12.347 25.0592 14.6974 24.8206 16.8335 23.9084C18.9696 22.9962 20.7953 21.4515 22.0798 19.4695C23.3643 17.4876 24.0499 15.1574 24.0499 12.7738C24.0464 9.57847 22.8137 6.51509 20.6222 4.25567C18.4306 1.99626 15.4592 0.725341 12.3599 0.721741ZM7.34993 21.7065V20.5215C7.35066 19.8368 7.61481 19.1803 8.08443 18.6962C8.55405 18.212 9.19079 17.9397 9.85493 17.9389H14.8649C15.5291 17.9397 16.1658 18.212 16.6354 18.6962C17.105 19.1803 17.3692 19.8368 17.3699 20.5215V21.7065C15.8495 22.6217 14.1205 23.1041 12.3599 23.1041C10.5993 23.1041 8.87032 22.6217 7.34993 21.7065ZM19.0337 20.4576C19.0171 19.3284 18.5708 18.2511 17.791 17.4579C17.0112 16.6647 15.9604 16.2191 14.8649 16.2172H9.85493C8.75949 16.2191 7.70864 16.6647 6.92886 17.4579C6.14907 18.2511 5.70279 19.3284 5.68619 20.4576C4.17197 19.0637 3.10414 17.2284 2.62411 15.1949C2.14407 13.1614 2.27446 11.0255 2.99802 9.07006C3.72158 7.11463 5.00418 5.4319 6.67598 4.24469C8.34777 3.05748 10.3299 2.42179 12.3599 2.42179C14.3899 2.42179 16.3721 3.05748 18.0439 4.24469C19.7157 5.4319 20.9983 7.11463 21.7218 9.07006C22.4454 11.0255 22.5758 13.1614 22.0958 15.1949C21.6157 17.2284 20.5479 19.0637 19.0337 20.4576Z" fill="#21201D"/>
</svg>
