<svg width="223" height="41" viewBox="0 0 223 41" fill="none" xmlns="http://www.w3.org/2000/svg">
<path d="M35.2151 40.2147V13.7311H40.7553V35.4119H50.3501V40.2183H35.2151V40.2147Z" fill="#1D1D1B"/>
<path d="M54.9968 40.2147V13.7311H60.537V40.2183H54.9968V40.2147Z" fill="#1D1D1B"/>
<path d="M65.7793 26.9926C65.7793 18.3505 70.3507 12.9474 77.6777 12.9474C83.4798 12.9474 87.6063 16.7112 88.4961 22.8549L83.365 23.8219C82.7335 20.0221 80.6524 17.7502 77.6777 17.7502C73.7738 17.7502 71.3195 21.2516 71.3195 26.9891C71.3195 32.7265 74.0716 36.1524 78.46 36.1524C81.9907 36.1524 84.6317 33.4706 85.2632 29.0741L90.4696 29.9297C89.6157 36.7097 84.9295 40.9948 78.4241 40.9948C70.6162 40.9948 65.7829 35.5916 65.7829 26.9891L65.7793 26.9926Z" fill="#1D1D1B"/>
<path d="M93.3259 22.4667C93.3259 19.9251 95.1666 18.1025 97.6604 18.1025C100.154 18.1025 101.995 19.9251 101.995 22.4667C101.995 25.0083 100.176 26.7877 97.6604 26.7877C95.1451 26.7877 93.3043 24.9651 93.3259 22.4667ZM100.09 22.4667C100.09 21.0539 99.0706 20.0114 97.6819 20.0114C96.2933 20.0114 95.2312 21.0539 95.2312 22.4667C95.2312 23.8795 96.2718 24.8753 97.6819 24.8753C99.0921 24.8753 100.09 23.8759 100.09 22.4667ZM98.0085 34.3226L97.3375 33.8445L108.543 17.9263L109.257 18.4045L98.0085 34.3226ZM104.381 30.0663C104.403 27.5247 106.222 25.7021 108.716 25.7021C111.209 25.7021 113.05 27.5247 113.05 30.0663C113.05 32.6079 111.231 34.3874 108.716 34.3874C106.2 34.3874 104.381 32.5647 104.381 30.0663ZM111.145 30.0663C111.145 28.6535 110.126 27.611 108.737 27.611C107.349 27.611 106.286 28.6535 106.286 30.0663C106.286 31.4791 107.305 32.4749 108.737 32.4749C110.169 32.4749 111.145 31.4755 111.145 30.0663Z" fill="#1D1D1B"/>
<path d="M130.151 37.0476L129 32.5036C128.591 30.9398 127.514 29.8218 126.1 29.8218H122.792V40.2147H117.252V13.7311H128.07C133.944 13.7311 137.665 16.8982 137.665 21.8879C137.665 25.2419 135.584 27.9956 132.014 28.8548V28.8908C133.388 29.4875 134.059 30.6415 134.432 32.1693L135.286 35.6707C135.473 36.5263 135.842 37.0871 136.513 37.0871C137.034 37.0871 137.593 36.7132 138.114 36.0051L139.488 38.7228C138.297 40.0637 136.513 40.8474 134.69 40.8474C132.236 40.8474 130.711 39.3195 130.155 37.0476H130.151ZM122.788 25.8746H127.622C130.334 25.8746 132.121 24.3468 132.121 21.9634C132.121 19.58 130.338 17.9767 127.622 17.9767H122.788V25.8746Z" fill="#1D1D1B"/>
<path d="M143.722 40.2147V13.7311H150.565L160.009 33.5857H160.084V13.7311H165.291V40.2183H158.412L148.968 20.4392H148.893V40.2183H143.726L143.722 40.2147Z" fill="#1D1D1B"/>
<path d="M171.348 40.2147V13.7311H187.412V18.275H176.705V24.6092H185.926V28.6319H176.705V35.7103H187.785V40.2183H171.351L171.348 40.2147Z" fill="#1D1D1B"/>
</svg>
