<svg width="18" height="25" viewBox="0 0 18 25" fill="none" xmlns="http://www.w3.org/2000/svg">
<path fill-rule="evenodd" clip-rule="evenodd" d="M0 24.4328L0.654885 20.1542L1.39531 5.89515L16.7517 6.00058L17.2409 20.4207L18 24.7432L0 24.4328ZM13.1592 9.75497L11.1384 9.80768L11.109 15.1786L6.92308 15.2577L6.8616 9.87211L4.80873 9.90725L4.7232 14.9941L7.16632 17.3575L10.9353 17.2843L13.1993 14.7862L13.1592 9.75497ZM11.1384 4.62417L11.109 2.19348L6.92308 2.11441L6.87764 4.55681L4.60558 4.51874L4.52807 2.36626L7.16632 0L10.9353 0.0732135L13.3971 2.58297L13.3543 4.67102L11.1384 4.62417Z" fill="#21201D"/>
</svg>
